M48
; DRILL file {KiCad 5.1.9+dfsg1-1} date Sat Sep 18 19:11:36 2021
; FORMAT={-:-/ absolute / metric / decimal}
; #@! TF.CreationDate,2021-09-18T19:11:36-05:00
; #@! TF.GenerationSoftware,Kicad,Pcbnew,5.1.9+dfsg1-1
; #@! TF.FileFunction,Plated,1,2,PTH
FMAT,2
METRIC
T1C0.700
T2C0.800
T3C0.900
T4C1.250
T5C1.500
%
G90
G05
T1
X110.25Y-88.88
X110.43Y-70.4
X110.43Y-75.12
X110.43Y-79.66
X110.43Y-84.34
X123.25Y-88.88
X123.43Y-70.4
X123.43Y-75.12
X123.43Y-79.66
X123.43Y-84.34
X129.75Y-75.55
X129.75Y-79.55
X129.75Y-84.1
X129.75Y-88.55
X142.75Y-75.55
X142.75Y-79.55
X142.75Y-84.1
X142.75Y-88.55
X186.87Y-80.27
X199.87Y-80.27
T2
X159.25Y-72.84
X159.25Y-80.46
X161.79Y-72.84
X161.79Y-80.46
X164.33Y-72.84
X164.33Y-80.46
X166.87Y-72.84
X166.87Y-80.46
X169.41Y-72.84
X169.41Y-80.46
X171.95Y-72.84
X171.95Y-80.46
X174.49Y-72.84
X174.49Y-80.46
X177.03Y-72.84
X177.03Y-80.46
X179.57Y-72.84
X179.57Y-80.46
X182.11Y-72.84
X182.11Y-80.46
T3
X99.1Y-96.1
X99.1Y-98.64
X122.15Y-95.43
X122.15Y-97.97
X133.89Y-95.52
X133.89Y-98.06
X145.71Y-95.35
X145.71Y-97.89
X157.44Y-95.26
X157.44Y-97.8
X169.34Y-95.35
X169.34Y-97.89
X181.08Y-95.35
X181.08Y-97.89
X192.98Y-95.52
X192.98Y-98.06
X204.71Y-95.35
X204.71Y-97.89
T4
X212.26Y-79.17
X212.26Y-85.17
T5
X93.62Y-82.514
X93.646Y-87.825
T0
M30
