%TF.GenerationSoftware,KiCad,Pcbnew,5.1.9+dfsg1-1*%
%TF.CreationDate,2021-09-18T19:11:01-05:00*%
%TF.ProjectId,larson_scanner,6c617273-6f6e-45f7-9363-616e6e65722e,rev?*%
%TF.SameCoordinates,Original*%
%TF.FileFunction,Soldermask,Top*%
%TF.FilePolarity,Negative*%
%FSLAX46Y46*%
G04 Gerber Fmt 4.6, Leading zero omitted, Abs format (unit mm)*
G04 Created by KiCad (PCBNEW 5.1.9+dfsg1-1) date 2021-09-18 19:11:01*
%MOMM*%
%LPD*%
G01*
G04 APERTURE LIST*
%ADD10C,3.000000*%
%ADD11C,1.800000*%
%ADD12R,1.800000X1.800000*%
%ADD13C,1.400000*%
%ADD14O,1.400000X1.400000*%
%ADD15C,2.000000*%
%ADD16O,1.600000X1.600000*%
%ADD17R,1.600000X1.600000*%
G04 APERTURE END LIST*
D10*
%TO.C,REF\u002A\u002A*%
X93645560Y-87825420D03*
X93620160Y-82514280D03*
%TD*%
D11*
%TO.C,D4*%
X145710000Y-97890000D03*
D12*
X145710000Y-95350000D03*
%TD*%
D13*
%TO.C,R1*%
X123430000Y-70400000D03*
D14*
X110430000Y-70400000D03*
%TD*%
D15*
%TO.C,SW1*%
X212260000Y-85170000D03*
X212260000Y-79170000D03*
%TD*%
D16*
%TO.C,U1*%
X182110000Y-80460000D03*
X159250000Y-72840000D03*
X179570000Y-80460000D03*
X161790000Y-72840000D03*
X177030000Y-80460000D03*
X164330000Y-72840000D03*
X174490000Y-80460000D03*
X166870000Y-72840000D03*
X171950000Y-80460000D03*
X169410000Y-72840000D03*
X169410000Y-80460000D03*
X171950000Y-72840000D03*
X166870000Y-80460000D03*
X174490000Y-72840000D03*
X164330000Y-80460000D03*
X177030000Y-72840000D03*
X161790000Y-80460000D03*
X179570000Y-72840000D03*
X159250000Y-80460000D03*
D17*
X182110000Y-72840000D03*
%TD*%
D13*
%TO.C,R9*%
X142750000Y-88550000D03*
D14*
X129750000Y-88550000D03*
%TD*%
D13*
%TO.C,R8*%
X142750000Y-84100000D03*
D14*
X129750000Y-84100000D03*
%TD*%
D13*
%TO.C,R7*%
X142750000Y-79550000D03*
D14*
X129750000Y-79550000D03*
%TD*%
D13*
%TO.C,R6*%
X142750000Y-75550000D03*
D14*
X129750000Y-75550000D03*
%TD*%
D13*
%TO.C,R5*%
X123250000Y-88880000D03*
D14*
X110250000Y-88880000D03*
%TD*%
D13*
%TO.C,R4*%
X123430000Y-84340000D03*
D14*
X110430000Y-84340000D03*
%TD*%
D13*
%TO.C,R3*%
X123430000Y-79660000D03*
D14*
X110430000Y-79660000D03*
%TD*%
D13*
%TO.C,R2*%
X123430000Y-75120000D03*
D14*
X110430000Y-75120000D03*
%TD*%
D11*
%TO.C,D9*%
X204710000Y-97890000D03*
D12*
X204710000Y-95350000D03*
%TD*%
D11*
%TO.C,D8*%
X192980000Y-98060000D03*
D12*
X192980000Y-95520000D03*
%TD*%
D11*
%TO.C,D7*%
X181080000Y-97890000D03*
D12*
X181080000Y-95350000D03*
%TD*%
D11*
%TO.C,D6*%
X169340000Y-97890000D03*
D12*
X169340000Y-95350000D03*
%TD*%
D11*
%TO.C,D5*%
X157440000Y-97800000D03*
D12*
X157440000Y-95260000D03*
%TD*%
D11*
%TO.C,D3*%
X133890000Y-98060000D03*
D12*
X133890000Y-95520000D03*
%TD*%
D11*
%TO.C,D2*%
X122150000Y-97970000D03*
D12*
X122150000Y-95430000D03*
%TD*%
D11*
%TO.C,D1*%
X99100000Y-98640000D03*
D12*
X99100000Y-96100000D03*
%TD*%
D13*
%TO.C,C1*%
X186870000Y-80270000D03*
D14*
X199870000Y-80270000D03*
%TD*%
M02*
