%TF.GenerationSoftware,KiCad,Pcbnew,5.1.9+dfsg1-1*%
%TF.CreationDate,2021-09-18T19:11:01-05:00*%
%TF.ProjectId,larson_scanner,6c617273-6f6e-45f7-9363-616e6e65722e,rev?*%
%TF.SameCoordinates,Original*%
%TF.FileFunction,Legend,Top*%
%TF.FilePolarity,Positive*%
%FSLAX46Y46*%
G04 Gerber Fmt 4.6, Leading zero omitted, Abs format (unit mm)*
G04 Created by KiCad (PCBNEW 5.1.9+dfsg1-1) date 2021-09-18 19:11:01*
%MOMM*%
%LPD*%
G01*
G04 APERTURE LIST*
%ADD10C,0.120000*%
%ADD11C,0.150000*%
%ADD12C,0.050000*%
%ADD13C,3.000000*%
%ADD14C,1.800000*%
%ADD15R,1.800000X1.800000*%
%ADD16C,1.400000*%
%ADD17O,1.400000X1.400000*%
%ADD18C,2.000000*%
%ADD19O,1.600000X1.600000*%
%ADD20R,1.600000X1.600000*%
G04 APERTURE END LIST*
D10*
%TO.C,D4*%
X147255000Y-94060000D02*
X144165000Y-94060000D01*
X148210000Y-96620000D02*
G75*
G03*
X148210000Y-96620000I-2500000J0D01*
G01*
X145710462Y-99610000D02*
G75*
G02*
X144165170Y-94060000I-462J2990000D01*
G01*
X145709538Y-99610000D02*
G75*
G03*
X147254830Y-94060000I462J2990000D01*
G01*
%TO.C,R1*%
X113430000Y-69400000D02*
X112930000Y-69400000D01*
X113430000Y-71400000D02*
X112930000Y-71400000D01*
X120930000Y-69400000D02*
X120430000Y-69400000D01*
X120930000Y-71400000D02*
X120430000Y-71400000D01*
X112930000Y-69400000D02*
X112930000Y-71400000D01*
X120930000Y-69400000D02*
X120930000Y-71400000D01*
X112930000Y-70400000D02*
X110930000Y-70400000D01*
X122930000Y-70400000D02*
X120930000Y-70400000D01*
%TO.C,REF\u002A\u002A*%
X98436840Y-66013020D02*
X98416520Y-66805500D01*
X97644360Y-65891100D02*
X97664680Y-66703900D01*
X93455900Y-67590360D02*
X96206720Y-67003620D01*
X96719800Y-68766380D02*
X93455900Y-67590360D01*
X95767300Y-71811840D02*
X96719800Y-68766380D01*
X98408900Y-69866200D02*
X95767300Y-71811840D01*
X101858220Y-72068380D02*
X98408900Y-69866200D01*
X100133560Y-69022920D02*
X101858220Y-72068380D01*
X103105360Y-66673420D02*
X100133560Y-69022920D01*
X99691600Y-66894400D02*
X103105360Y-66673420D01*
X98408900Y-63556840D02*
X99691600Y-66894400D01*
X96097500Y-66968060D02*
X98408900Y-63556840D01*
X98224013Y-65748188D02*
G75*
G02*
X98726399Y-65726001I250927J17108D01*
G01*
X97459473Y-65730408D02*
G75*
G02*
X97961859Y-65708221I250927J17108D01*
G01*
X97402833Y-67976815D02*
G75*
G02*
X98701000Y-68004380I647928J-68204D01*
G01*
%TO.C,SW1*%
X213260000Y-85170000D02*
X214260000Y-85170000D01*
X210260000Y-85170000D02*
X211260000Y-85170000D01*
X213260000Y-79170000D02*
X214260000Y-79170000D01*
X214260000Y-79170000D02*
X214260000Y-85170000D01*
X210260000Y-79170000D02*
X210260000Y-85170000D01*
X210260000Y-79170000D02*
X211260000Y-79170000D01*
%TO.C,U1*%
X183440000Y-79300000D02*
X183440000Y-77650000D01*
X157920000Y-79300000D02*
X183440000Y-79300000D01*
X157920000Y-74000000D02*
X157920000Y-79300000D01*
X183440000Y-74000000D02*
X157920000Y-74000000D01*
X183440000Y-75650000D02*
X183440000Y-74000000D01*
X183440000Y-77650000D02*
G75*
G02*
X183440000Y-75650000I0J1000000D01*
G01*
%TO.C,R9*%
X132750000Y-87550000D02*
X132250000Y-87550000D01*
X132750000Y-89550000D02*
X132250000Y-89550000D01*
X140250000Y-87550000D02*
X139750000Y-87550000D01*
X140250000Y-89550000D02*
X139750000Y-89550000D01*
X132250000Y-87550000D02*
X132250000Y-89550000D01*
X140250000Y-87550000D02*
X140250000Y-89550000D01*
X132250000Y-88550000D02*
X130250000Y-88550000D01*
X142250000Y-88550000D02*
X140250000Y-88550000D01*
%TO.C,R8*%
X132750000Y-83100000D02*
X132250000Y-83100000D01*
X132750000Y-85100000D02*
X132250000Y-85100000D01*
X140250000Y-83100000D02*
X139750000Y-83100000D01*
X140250000Y-85100000D02*
X139750000Y-85100000D01*
X132250000Y-83100000D02*
X132250000Y-85100000D01*
X140250000Y-83100000D02*
X140250000Y-85100000D01*
X132250000Y-84100000D02*
X130250000Y-84100000D01*
X142250000Y-84100000D02*
X140250000Y-84100000D01*
%TO.C,R7*%
X132750000Y-78550000D02*
X132250000Y-78550000D01*
X132750000Y-80550000D02*
X132250000Y-80550000D01*
X140250000Y-78550000D02*
X139750000Y-78550000D01*
X140250000Y-80550000D02*
X139750000Y-80550000D01*
X132250000Y-78550000D02*
X132250000Y-80550000D01*
X140250000Y-78550000D02*
X140250000Y-80550000D01*
X132250000Y-79550000D02*
X130250000Y-79550000D01*
X142250000Y-79550000D02*
X140250000Y-79550000D01*
%TO.C,R6*%
X132750000Y-74550000D02*
X132250000Y-74550000D01*
X132750000Y-76550000D02*
X132250000Y-76550000D01*
X140250000Y-74550000D02*
X139750000Y-74550000D01*
X140250000Y-76550000D02*
X139750000Y-76550000D01*
X132250000Y-74550000D02*
X132250000Y-76550000D01*
X140250000Y-74550000D02*
X140250000Y-76550000D01*
X132250000Y-75550000D02*
X130250000Y-75550000D01*
X142250000Y-75550000D02*
X140250000Y-75550000D01*
%TO.C,R5*%
X113250000Y-87880000D02*
X112750000Y-87880000D01*
X113250000Y-89880000D02*
X112750000Y-89880000D01*
X120750000Y-87880000D02*
X120250000Y-87880000D01*
X120750000Y-89880000D02*
X120250000Y-89880000D01*
X112750000Y-87880000D02*
X112750000Y-89880000D01*
X120750000Y-87880000D02*
X120750000Y-89880000D01*
X112750000Y-88880000D02*
X110750000Y-88880000D01*
X122750000Y-88880000D02*
X120750000Y-88880000D01*
%TO.C,R4*%
X113430000Y-83340000D02*
X112930000Y-83340000D01*
X113430000Y-85340000D02*
X112930000Y-85340000D01*
X120930000Y-83340000D02*
X120430000Y-83340000D01*
X120930000Y-85340000D02*
X120430000Y-85340000D01*
X112930000Y-83340000D02*
X112930000Y-85340000D01*
X120930000Y-83340000D02*
X120930000Y-85340000D01*
X112930000Y-84340000D02*
X110930000Y-84340000D01*
X122930000Y-84340000D02*
X120930000Y-84340000D01*
%TO.C,R3*%
X113430000Y-78660000D02*
X112930000Y-78660000D01*
X113430000Y-80660000D02*
X112930000Y-80660000D01*
X120930000Y-78660000D02*
X120430000Y-78660000D01*
X120930000Y-80660000D02*
X120430000Y-80660000D01*
X112930000Y-78660000D02*
X112930000Y-80660000D01*
X120930000Y-78660000D02*
X120930000Y-80660000D01*
X112930000Y-79660000D02*
X110930000Y-79660000D01*
X122930000Y-79660000D02*
X120930000Y-79660000D01*
%TO.C,R2*%
X113430000Y-74120000D02*
X112930000Y-74120000D01*
X113430000Y-76120000D02*
X112930000Y-76120000D01*
X120930000Y-74120000D02*
X120430000Y-74120000D01*
X120930000Y-76120000D02*
X120430000Y-76120000D01*
X112930000Y-74120000D02*
X112930000Y-76120000D01*
X120930000Y-74120000D02*
X120930000Y-76120000D01*
X112930000Y-75120000D02*
X110930000Y-75120000D01*
X122930000Y-75120000D02*
X120930000Y-75120000D01*
%TO.C,D9*%
X206255000Y-94060000D02*
X203165000Y-94060000D01*
X207210000Y-96620000D02*
G75*
G03*
X207210000Y-96620000I-2500000J0D01*
G01*
X204710462Y-99610000D02*
G75*
G02*
X203165170Y-94060000I-462J2990000D01*
G01*
X204709538Y-99610000D02*
G75*
G03*
X206254830Y-94060000I462J2990000D01*
G01*
%TO.C,D8*%
X194525000Y-94230000D02*
X191435000Y-94230000D01*
X195480000Y-96790000D02*
G75*
G03*
X195480000Y-96790000I-2500000J0D01*
G01*
X192980462Y-99780000D02*
G75*
G02*
X191435170Y-94230000I-462J2990000D01*
G01*
X192979538Y-99780000D02*
G75*
G03*
X194524830Y-94230000I462J2990000D01*
G01*
%TO.C,D7*%
X182625000Y-94060000D02*
X179535000Y-94060000D01*
X183580000Y-96620000D02*
G75*
G03*
X183580000Y-96620000I-2500000J0D01*
G01*
X181080462Y-99610000D02*
G75*
G02*
X179535170Y-94060000I-462J2990000D01*
G01*
X181079538Y-99610000D02*
G75*
G03*
X182624830Y-94060000I462J2990000D01*
G01*
%TO.C,D6*%
X170885000Y-94060000D02*
X167795000Y-94060000D01*
X171840000Y-96620000D02*
G75*
G03*
X171840000Y-96620000I-2500000J0D01*
G01*
X169340462Y-99610000D02*
G75*
G02*
X167795170Y-94060000I-462J2990000D01*
G01*
X169339538Y-99610000D02*
G75*
G03*
X170884830Y-94060000I462J2990000D01*
G01*
%TO.C,D5*%
X158985000Y-93970000D02*
X155895000Y-93970000D01*
X159940000Y-96530000D02*
G75*
G03*
X159940000Y-96530000I-2500000J0D01*
G01*
X157440462Y-99520000D02*
G75*
G02*
X155895170Y-93970000I-462J2990000D01*
G01*
X157439538Y-99520000D02*
G75*
G03*
X158984830Y-93970000I462J2990000D01*
G01*
%TO.C,D3*%
X135435000Y-94230000D02*
X132345000Y-94230000D01*
X136390000Y-96790000D02*
G75*
G03*
X136390000Y-96790000I-2500000J0D01*
G01*
X133890462Y-99780000D02*
G75*
G02*
X132345170Y-94230000I-462J2990000D01*
G01*
X133889538Y-99780000D02*
G75*
G03*
X135434830Y-94230000I462J2990000D01*
G01*
%TO.C,D2*%
X123695000Y-94140000D02*
X120605000Y-94140000D01*
X124650000Y-96700000D02*
G75*
G03*
X124650000Y-96700000I-2500000J0D01*
G01*
X122150462Y-99690000D02*
G75*
G02*
X120605170Y-94140000I-462J2990000D01*
G01*
X122149538Y-99690000D02*
G75*
G03*
X123694830Y-94140000I462J2990000D01*
G01*
%TO.C,D1*%
X100645000Y-94810000D02*
X97555000Y-94810000D01*
X101600000Y-97370000D02*
G75*
G03*
X101600000Y-97370000I-2500000J0D01*
G01*
X99100462Y-100360000D02*
G75*
G02*
X97555170Y-94810000I-462J2990000D01*
G01*
X99099538Y-100360000D02*
G75*
G03*
X100644830Y-94810000I462J2990000D01*
G01*
%TO.C,C1*%
X196870000Y-81270000D02*
X197370000Y-81270000D01*
X196870000Y-79270000D02*
X197370000Y-79270000D01*
X189370000Y-81270000D02*
X189870000Y-81270000D01*
X189370000Y-79270000D02*
X189870000Y-79270000D01*
X197370000Y-81270000D02*
X197370000Y-79270000D01*
X189370000Y-81270000D02*
X189370000Y-79270000D01*
X197370000Y-80270000D02*
X199370000Y-80270000D01*
X187370000Y-80270000D02*
X189370000Y-80270000D01*
%TO.C,REF\u002A\u002A*%
D11*
X96213595Y-87378760D02*
X96118357Y-87331140D01*
X95975500Y-87331140D01*
X95832642Y-87378760D01*
X95737404Y-87473998D01*
X95689785Y-87569236D01*
X95642166Y-87759712D01*
X95642166Y-87902569D01*
X95689785Y-88093045D01*
X95737404Y-88188283D01*
X95832642Y-88283521D01*
X95975500Y-88331140D01*
X96070738Y-88331140D01*
X96213595Y-88283521D01*
X96261214Y-88235902D01*
X96261214Y-87902569D01*
X96070738Y-87902569D01*
X96689785Y-88331140D02*
X96689785Y-87331140D01*
X97261214Y-88331140D01*
X97261214Y-87331140D01*
X97737404Y-88331140D02*
X97737404Y-87331140D01*
X97975500Y-87331140D01*
X98118357Y-87378760D01*
X98213595Y-87473998D01*
X98261214Y-87569236D01*
X98308833Y-87759712D01*
X98308833Y-87902569D01*
X98261214Y-88093045D01*
X98213595Y-88188283D01*
X98118357Y-88283521D01*
X97975500Y-88331140D01*
X97737404Y-88331140D01*
X95461826Y-81948880D02*
X95795160Y-82948880D01*
X96128493Y-81948880D01*
X97033255Y-82853642D02*
X96985636Y-82901261D01*
X96842779Y-82948880D01*
X96747540Y-82948880D01*
X96604683Y-82901261D01*
X96509445Y-82806023D01*
X96461826Y-82710785D01*
X96414207Y-82520309D01*
X96414207Y-82377452D01*
X96461826Y-82186976D01*
X96509445Y-82091738D01*
X96604683Y-81996500D01*
X96747540Y-81948880D01*
X96842779Y-81948880D01*
X96985636Y-81996500D01*
X97033255Y-82044119D01*
X98033255Y-82853642D02*
X97985636Y-82901261D01*
X97842779Y-82948880D01*
X97747540Y-82948880D01*
X97604683Y-82901261D01*
X97509445Y-82806023D01*
X97461826Y-82710785D01*
X97414207Y-82520309D01*
X97414207Y-82377452D01*
X97461826Y-82186976D01*
X97509445Y-82091738D01*
X97604683Y-81996500D01*
X97747540Y-81948880D01*
X97842779Y-81948880D01*
X97985636Y-81996500D01*
X98033255Y-82044119D01*
%TO.C,D4*%
X150122380Y-97358095D02*
X149122380Y-97358095D01*
X149122380Y-97120000D01*
X149170000Y-96977142D01*
X149265238Y-96881904D01*
X149360476Y-96834285D01*
X149550952Y-96786666D01*
X149693809Y-96786666D01*
X149884285Y-96834285D01*
X149979523Y-96881904D01*
X150074761Y-96977142D01*
X150122380Y-97120000D01*
X150122380Y-97358095D01*
X149455714Y-95929523D02*
X150122380Y-95929523D01*
X149074761Y-96167619D02*
X149789047Y-96405714D01*
X149789047Y-95786666D01*
%TO.C,R1*%
D12*
X116793326Y-70671910D02*
X116626660Y-70433815D01*
X116507612Y-70671910D02*
X116507612Y-70171910D01*
X116698088Y-70171910D01*
X116745707Y-70195720D01*
X116769517Y-70219529D01*
X116793326Y-70267148D01*
X116793326Y-70338577D01*
X116769517Y-70386196D01*
X116745707Y-70410005D01*
X116698088Y-70433815D01*
X116507612Y-70433815D01*
X117269517Y-70671910D02*
X116983802Y-70671910D01*
X117126660Y-70671910D02*
X117126660Y-70171910D01*
X117079040Y-70243339D01*
X117031421Y-70290958D01*
X116983802Y-70314767D01*
%TO.C,SW1*%
X211593333Y-82872380D02*
X211664761Y-82896190D01*
X211783809Y-82896190D01*
X211831428Y-82872380D01*
X211855238Y-82848571D01*
X211879047Y-82800952D01*
X211879047Y-82753333D01*
X211855238Y-82705714D01*
X211831428Y-82681904D01*
X211783809Y-82658095D01*
X211688571Y-82634285D01*
X211640952Y-82610476D01*
X211617142Y-82586666D01*
X211593333Y-82539047D01*
X211593333Y-82491428D01*
X211617142Y-82443809D01*
X211640952Y-82420000D01*
X211688571Y-82396190D01*
X211807619Y-82396190D01*
X211879047Y-82420000D01*
X212045714Y-82396190D02*
X212164761Y-82896190D01*
X212260000Y-82539047D01*
X212355238Y-82896190D01*
X212474285Y-82396190D01*
X212926666Y-82896190D02*
X212640952Y-82896190D01*
X212783809Y-82896190D02*
X212783809Y-82396190D01*
X212736190Y-82467619D01*
X212688571Y-82515238D01*
X212640952Y-82539047D01*
%TO.C,U1*%
D11*
X183892380Y-77411904D02*
X184701904Y-77411904D01*
X184797142Y-77364285D01*
X184844761Y-77316666D01*
X184892380Y-77221428D01*
X184892380Y-77030952D01*
X184844761Y-76935714D01*
X184797142Y-76888095D01*
X184701904Y-76840476D01*
X183892380Y-76840476D01*
X184892380Y-75840476D02*
X184892380Y-76411904D01*
X184892380Y-76126190D02*
X183892380Y-76126190D01*
X184035238Y-76221428D01*
X184130476Y-76316666D01*
X184178095Y-76411904D01*
%TO.C,R9*%
D12*
X136113326Y-88821910D02*
X135946660Y-88583815D01*
X135827612Y-88821910D02*
X135827612Y-88321910D01*
X136018088Y-88321910D01*
X136065707Y-88345720D01*
X136089517Y-88369529D01*
X136113326Y-88417148D01*
X136113326Y-88488577D01*
X136089517Y-88536196D01*
X136065707Y-88560005D01*
X136018088Y-88583815D01*
X135827612Y-88583815D01*
X136351421Y-88821910D02*
X136446660Y-88821910D01*
X136494279Y-88798100D01*
X136518088Y-88774291D01*
X136565707Y-88702862D01*
X136589517Y-88607624D01*
X136589517Y-88417148D01*
X136565707Y-88369529D01*
X136541898Y-88345720D01*
X136494279Y-88321910D01*
X136399040Y-88321910D01*
X136351421Y-88345720D01*
X136327612Y-88369529D01*
X136303802Y-88417148D01*
X136303802Y-88536196D01*
X136327612Y-88583815D01*
X136351421Y-88607624D01*
X136399040Y-88631434D01*
X136494279Y-88631434D01*
X136541898Y-88607624D01*
X136565707Y-88583815D01*
X136589517Y-88536196D01*
%TO.C,R8*%
X136113326Y-84371910D02*
X135946660Y-84133815D01*
X135827612Y-84371910D02*
X135827612Y-83871910D01*
X136018088Y-83871910D01*
X136065707Y-83895720D01*
X136089517Y-83919529D01*
X136113326Y-83967148D01*
X136113326Y-84038577D01*
X136089517Y-84086196D01*
X136065707Y-84110005D01*
X136018088Y-84133815D01*
X135827612Y-84133815D01*
X136399040Y-84086196D02*
X136351421Y-84062386D01*
X136327612Y-84038577D01*
X136303802Y-83990958D01*
X136303802Y-83967148D01*
X136327612Y-83919529D01*
X136351421Y-83895720D01*
X136399040Y-83871910D01*
X136494279Y-83871910D01*
X136541898Y-83895720D01*
X136565707Y-83919529D01*
X136589517Y-83967148D01*
X136589517Y-83990958D01*
X136565707Y-84038577D01*
X136541898Y-84062386D01*
X136494279Y-84086196D01*
X136399040Y-84086196D01*
X136351421Y-84110005D01*
X136327612Y-84133815D01*
X136303802Y-84181434D01*
X136303802Y-84276672D01*
X136327612Y-84324291D01*
X136351421Y-84348100D01*
X136399040Y-84371910D01*
X136494279Y-84371910D01*
X136541898Y-84348100D01*
X136565707Y-84324291D01*
X136589517Y-84276672D01*
X136589517Y-84181434D01*
X136565707Y-84133815D01*
X136541898Y-84110005D01*
X136494279Y-84086196D01*
%TO.C,R7*%
X136113326Y-79821910D02*
X135946660Y-79583815D01*
X135827612Y-79821910D02*
X135827612Y-79321910D01*
X136018088Y-79321910D01*
X136065707Y-79345720D01*
X136089517Y-79369529D01*
X136113326Y-79417148D01*
X136113326Y-79488577D01*
X136089517Y-79536196D01*
X136065707Y-79560005D01*
X136018088Y-79583815D01*
X135827612Y-79583815D01*
X136279993Y-79321910D02*
X136613326Y-79321910D01*
X136399040Y-79821910D01*
%TO.C,R6*%
X136113326Y-75821910D02*
X135946660Y-75583815D01*
X135827612Y-75821910D02*
X135827612Y-75321910D01*
X136018088Y-75321910D01*
X136065707Y-75345720D01*
X136089517Y-75369529D01*
X136113326Y-75417148D01*
X136113326Y-75488577D01*
X136089517Y-75536196D01*
X136065707Y-75560005D01*
X136018088Y-75583815D01*
X135827612Y-75583815D01*
X136541898Y-75321910D02*
X136446660Y-75321910D01*
X136399040Y-75345720D01*
X136375231Y-75369529D01*
X136327612Y-75440958D01*
X136303802Y-75536196D01*
X136303802Y-75726672D01*
X136327612Y-75774291D01*
X136351421Y-75798100D01*
X136399040Y-75821910D01*
X136494279Y-75821910D01*
X136541898Y-75798100D01*
X136565707Y-75774291D01*
X136589517Y-75726672D01*
X136589517Y-75607624D01*
X136565707Y-75560005D01*
X136541898Y-75536196D01*
X136494279Y-75512386D01*
X136399040Y-75512386D01*
X136351421Y-75536196D01*
X136327612Y-75560005D01*
X136303802Y-75607624D01*
%TO.C,R5*%
X116613326Y-89151910D02*
X116446660Y-88913815D01*
X116327612Y-89151910D02*
X116327612Y-88651910D01*
X116518088Y-88651910D01*
X116565707Y-88675720D01*
X116589517Y-88699529D01*
X116613326Y-88747148D01*
X116613326Y-88818577D01*
X116589517Y-88866196D01*
X116565707Y-88890005D01*
X116518088Y-88913815D01*
X116327612Y-88913815D01*
X117065707Y-88651910D02*
X116827612Y-88651910D01*
X116803802Y-88890005D01*
X116827612Y-88866196D01*
X116875231Y-88842386D01*
X116994279Y-88842386D01*
X117041898Y-88866196D01*
X117065707Y-88890005D01*
X117089517Y-88937624D01*
X117089517Y-89056672D01*
X117065707Y-89104291D01*
X117041898Y-89128100D01*
X116994279Y-89151910D01*
X116875231Y-89151910D01*
X116827612Y-89128100D01*
X116803802Y-89104291D01*
%TO.C,R4*%
X116793326Y-84611910D02*
X116626660Y-84373815D01*
X116507612Y-84611910D02*
X116507612Y-84111910D01*
X116698088Y-84111910D01*
X116745707Y-84135720D01*
X116769517Y-84159529D01*
X116793326Y-84207148D01*
X116793326Y-84278577D01*
X116769517Y-84326196D01*
X116745707Y-84350005D01*
X116698088Y-84373815D01*
X116507612Y-84373815D01*
X117221898Y-84278577D02*
X117221898Y-84611910D01*
X117102850Y-84088100D02*
X116983802Y-84445243D01*
X117293326Y-84445243D01*
%TO.C,R3*%
X116793326Y-79931910D02*
X116626660Y-79693815D01*
X116507612Y-79931910D02*
X116507612Y-79431910D01*
X116698088Y-79431910D01*
X116745707Y-79455720D01*
X116769517Y-79479529D01*
X116793326Y-79527148D01*
X116793326Y-79598577D01*
X116769517Y-79646196D01*
X116745707Y-79670005D01*
X116698088Y-79693815D01*
X116507612Y-79693815D01*
X116959993Y-79431910D02*
X117269517Y-79431910D01*
X117102850Y-79622386D01*
X117174279Y-79622386D01*
X117221898Y-79646196D01*
X117245707Y-79670005D01*
X117269517Y-79717624D01*
X117269517Y-79836672D01*
X117245707Y-79884291D01*
X117221898Y-79908100D01*
X117174279Y-79931910D01*
X117031421Y-79931910D01*
X116983802Y-79908100D01*
X116959993Y-79884291D01*
%TO.C,R2*%
X116793326Y-75391910D02*
X116626660Y-75153815D01*
X116507612Y-75391910D02*
X116507612Y-74891910D01*
X116698088Y-74891910D01*
X116745707Y-74915720D01*
X116769517Y-74939529D01*
X116793326Y-74987148D01*
X116793326Y-75058577D01*
X116769517Y-75106196D01*
X116745707Y-75130005D01*
X116698088Y-75153815D01*
X116507612Y-75153815D01*
X116983802Y-74939529D02*
X117007612Y-74915720D01*
X117055231Y-74891910D01*
X117174279Y-74891910D01*
X117221898Y-74915720D01*
X117245707Y-74939529D01*
X117269517Y-74987148D01*
X117269517Y-75034767D01*
X117245707Y-75106196D01*
X116959993Y-75391910D01*
X117269517Y-75391910D01*
%TO.C,D9*%
D11*
X209122380Y-97358095D02*
X208122380Y-97358095D01*
X208122380Y-97120000D01*
X208170000Y-96977142D01*
X208265238Y-96881904D01*
X208360476Y-96834285D01*
X208550952Y-96786666D01*
X208693809Y-96786666D01*
X208884285Y-96834285D01*
X208979523Y-96881904D01*
X209074761Y-96977142D01*
X209122380Y-97120000D01*
X209122380Y-97358095D01*
X209122380Y-96310476D02*
X209122380Y-96120000D01*
X209074761Y-96024761D01*
X209027142Y-95977142D01*
X208884285Y-95881904D01*
X208693809Y-95834285D01*
X208312857Y-95834285D01*
X208217619Y-95881904D01*
X208170000Y-95929523D01*
X208122380Y-96024761D01*
X208122380Y-96215238D01*
X208170000Y-96310476D01*
X208217619Y-96358095D01*
X208312857Y-96405714D01*
X208550952Y-96405714D01*
X208646190Y-96358095D01*
X208693809Y-96310476D01*
X208741428Y-96215238D01*
X208741428Y-96024761D01*
X208693809Y-95929523D01*
X208646190Y-95881904D01*
X208550952Y-95834285D01*
%TO.C,D8*%
X197392380Y-97528095D02*
X196392380Y-97528095D01*
X196392380Y-97290000D01*
X196440000Y-97147142D01*
X196535238Y-97051904D01*
X196630476Y-97004285D01*
X196820952Y-96956666D01*
X196963809Y-96956666D01*
X197154285Y-97004285D01*
X197249523Y-97051904D01*
X197344761Y-97147142D01*
X197392380Y-97290000D01*
X197392380Y-97528095D01*
X196820952Y-96385238D02*
X196773333Y-96480476D01*
X196725714Y-96528095D01*
X196630476Y-96575714D01*
X196582857Y-96575714D01*
X196487619Y-96528095D01*
X196440000Y-96480476D01*
X196392380Y-96385238D01*
X196392380Y-96194761D01*
X196440000Y-96099523D01*
X196487619Y-96051904D01*
X196582857Y-96004285D01*
X196630476Y-96004285D01*
X196725714Y-96051904D01*
X196773333Y-96099523D01*
X196820952Y-96194761D01*
X196820952Y-96385238D01*
X196868571Y-96480476D01*
X196916190Y-96528095D01*
X197011428Y-96575714D01*
X197201904Y-96575714D01*
X197297142Y-96528095D01*
X197344761Y-96480476D01*
X197392380Y-96385238D01*
X197392380Y-96194761D01*
X197344761Y-96099523D01*
X197297142Y-96051904D01*
X197201904Y-96004285D01*
X197011428Y-96004285D01*
X196916190Y-96051904D01*
X196868571Y-96099523D01*
X196820952Y-96194761D01*
%TO.C,D7*%
X185492380Y-97358095D02*
X184492380Y-97358095D01*
X184492380Y-97120000D01*
X184540000Y-96977142D01*
X184635238Y-96881904D01*
X184730476Y-96834285D01*
X184920952Y-96786666D01*
X185063809Y-96786666D01*
X185254285Y-96834285D01*
X185349523Y-96881904D01*
X185444761Y-96977142D01*
X185492380Y-97120000D01*
X185492380Y-97358095D01*
X184492380Y-96453333D02*
X184492380Y-95786666D01*
X185492380Y-96215238D01*
%TO.C,D6*%
X173752380Y-97358095D02*
X172752380Y-97358095D01*
X172752380Y-97120000D01*
X172800000Y-96977142D01*
X172895238Y-96881904D01*
X172990476Y-96834285D01*
X173180952Y-96786666D01*
X173323809Y-96786666D01*
X173514285Y-96834285D01*
X173609523Y-96881904D01*
X173704761Y-96977142D01*
X173752380Y-97120000D01*
X173752380Y-97358095D01*
X172752380Y-95929523D02*
X172752380Y-96120000D01*
X172800000Y-96215238D01*
X172847619Y-96262857D01*
X172990476Y-96358095D01*
X173180952Y-96405714D01*
X173561904Y-96405714D01*
X173657142Y-96358095D01*
X173704761Y-96310476D01*
X173752380Y-96215238D01*
X173752380Y-96024761D01*
X173704761Y-95929523D01*
X173657142Y-95881904D01*
X173561904Y-95834285D01*
X173323809Y-95834285D01*
X173228571Y-95881904D01*
X173180952Y-95929523D01*
X173133333Y-96024761D01*
X173133333Y-96215238D01*
X173180952Y-96310476D01*
X173228571Y-96358095D01*
X173323809Y-96405714D01*
%TO.C,D5*%
X161852380Y-97268095D02*
X160852380Y-97268095D01*
X160852380Y-97030000D01*
X160900000Y-96887142D01*
X160995238Y-96791904D01*
X161090476Y-96744285D01*
X161280952Y-96696666D01*
X161423809Y-96696666D01*
X161614285Y-96744285D01*
X161709523Y-96791904D01*
X161804761Y-96887142D01*
X161852380Y-97030000D01*
X161852380Y-97268095D01*
X160852380Y-95791904D02*
X160852380Y-96268095D01*
X161328571Y-96315714D01*
X161280952Y-96268095D01*
X161233333Y-96172857D01*
X161233333Y-95934761D01*
X161280952Y-95839523D01*
X161328571Y-95791904D01*
X161423809Y-95744285D01*
X161661904Y-95744285D01*
X161757142Y-95791904D01*
X161804761Y-95839523D01*
X161852380Y-95934761D01*
X161852380Y-96172857D01*
X161804761Y-96268095D01*
X161757142Y-96315714D01*
%TO.C,D3*%
X138302380Y-97528095D02*
X137302380Y-97528095D01*
X137302380Y-97290000D01*
X137350000Y-97147142D01*
X137445238Y-97051904D01*
X137540476Y-97004285D01*
X137730952Y-96956666D01*
X137873809Y-96956666D01*
X138064285Y-97004285D01*
X138159523Y-97051904D01*
X138254761Y-97147142D01*
X138302380Y-97290000D01*
X138302380Y-97528095D01*
X137302380Y-96623333D02*
X137302380Y-96004285D01*
X137683333Y-96337619D01*
X137683333Y-96194761D01*
X137730952Y-96099523D01*
X137778571Y-96051904D01*
X137873809Y-96004285D01*
X138111904Y-96004285D01*
X138207142Y-96051904D01*
X138254761Y-96099523D01*
X138302380Y-96194761D01*
X138302380Y-96480476D01*
X138254761Y-96575714D01*
X138207142Y-96623333D01*
%TO.C,D2*%
X126562380Y-97438095D02*
X125562380Y-97438095D01*
X125562380Y-97200000D01*
X125610000Y-97057142D01*
X125705238Y-96961904D01*
X125800476Y-96914285D01*
X125990952Y-96866666D01*
X126133809Y-96866666D01*
X126324285Y-96914285D01*
X126419523Y-96961904D01*
X126514761Y-97057142D01*
X126562380Y-97200000D01*
X126562380Y-97438095D01*
X125657619Y-96485714D02*
X125610000Y-96438095D01*
X125562380Y-96342857D01*
X125562380Y-96104761D01*
X125610000Y-96009523D01*
X125657619Y-95961904D01*
X125752857Y-95914285D01*
X125848095Y-95914285D01*
X125990952Y-95961904D01*
X126562380Y-96533333D01*
X126562380Y-95914285D01*
%TO.C,D1*%
X103512380Y-98108095D02*
X102512380Y-98108095D01*
X102512380Y-97870000D01*
X102560000Y-97727142D01*
X102655238Y-97631904D01*
X102750476Y-97584285D01*
X102940952Y-97536666D01*
X103083809Y-97536666D01*
X103274285Y-97584285D01*
X103369523Y-97631904D01*
X103464761Y-97727142D01*
X103512380Y-97870000D01*
X103512380Y-98108095D01*
X103512380Y-96584285D02*
X103512380Y-97155714D01*
X103512380Y-96870000D02*
X102512380Y-96870000D01*
X102655238Y-96965238D01*
X102750476Y-97060476D01*
X102798095Y-97155714D01*
%TO.C,C1*%
D12*
X193340006Y-80402851D02*
X193316197Y-80426660D01*
X193244768Y-80450470D01*
X193197149Y-80450470D01*
X193125720Y-80426660D01*
X193078101Y-80379041D01*
X193054292Y-80331422D01*
X193030482Y-80236184D01*
X193030482Y-80164756D01*
X193054292Y-80069518D01*
X193078101Y-80021899D01*
X193125720Y-79974280D01*
X193197149Y-79950470D01*
X193244768Y-79950470D01*
X193316197Y-79974280D01*
X193340006Y-79998089D01*
X193816197Y-80450470D02*
X193530482Y-80450470D01*
X193673340Y-80450470D02*
X193673340Y-79950470D01*
X193625720Y-80021899D01*
X193578101Y-80069518D01*
X193530482Y-80093327D01*
%TD*%
%LPC*%
D13*
%TO.C,REF\u002A\u002A*%
X93645560Y-87825420D03*
X93620160Y-82514280D03*
%TD*%
D14*
%TO.C,D4*%
X145710000Y-97890000D03*
D15*
X145710000Y-95350000D03*
%TD*%
D16*
%TO.C,R1*%
X123430000Y-70400000D03*
D17*
X110430000Y-70400000D03*
%TD*%
D18*
%TO.C,SW1*%
X212260000Y-85170000D03*
X212260000Y-79170000D03*
%TD*%
D19*
%TO.C,U1*%
X182110000Y-80460000D03*
X159250000Y-72840000D03*
X179570000Y-80460000D03*
X161790000Y-72840000D03*
X177030000Y-80460000D03*
X164330000Y-72840000D03*
X174490000Y-80460000D03*
X166870000Y-72840000D03*
X171950000Y-80460000D03*
X169410000Y-72840000D03*
X169410000Y-80460000D03*
X171950000Y-72840000D03*
X166870000Y-80460000D03*
X174490000Y-72840000D03*
X164330000Y-80460000D03*
X177030000Y-72840000D03*
X161790000Y-80460000D03*
X179570000Y-72840000D03*
X159250000Y-80460000D03*
D20*
X182110000Y-72840000D03*
%TD*%
D16*
%TO.C,R9*%
X142750000Y-88550000D03*
D17*
X129750000Y-88550000D03*
%TD*%
D16*
%TO.C,R8*%
X142750000Y-84100000D03*
D17*
X129750000Y-84100000D03*
%TD*%
D16*
%TO.C,R7*%
X142750000Y-79550000D03*
D17*
X129750000Y-79550000D03*
%TD*%
D16*
%TO.C,R6*%
X142750000Y-75550000D03*
D17*
X129750000Y-75550000D03*
%TD*%
D16*
%TO.C,R5*%
X123250000Y-88880000D03*
D17*
X110250000Y-88880000D03*
%TD*%
D16*
%TO.C,R4*%
X123430000Y-84340000D03*
D17*
X110430000Y-84340000D03*
%TD*%
D16*
%TO.C,R3*%
X123430000Y-79660000D03*
D17*
X110430000Y-79660000D03*
%TD*%
D16*
%TO.C,R2*%
X123430000Y-75120000D03*
D17*
X110430000Y-75120000D03*
%TD*%
D14*
%TO.C,D9*%
X204710000Y-97890000D03*
D15*
X204710000Y-95350000D03*
%TD*%
D14*
%TO.C,D8*%
X192980000Y-98060000D03*
D15*
X192980000Y-95520000D03*
%TD*%
D14*
%TO.C,D7*%
X181080000Y-97890000D03*
D15*
X181080000Y-95350000D03*
%TD*%
D14*
%TO.C,D6*%
X169340000Y-97890000D03*
D15*
X169340000Y-95350000D03*
%TD*%
D14*
%TO.C,D5*%
X157440000Y-97800000D03*
D15*
X157440000Y-95260000D03*
%TD*%
D14*
%TO.C,D3*%
X133890000Y-98060000D03*
D15*
X133890000Y-95520000D03*
%TD*%
D14*
%TO.C,D2*%
X122150000Y-97970000D03*
D15*
X122150000Y-95430000D03*
%TD*%
D14*
%TO.C,D1*%
X99100000Y-98640000D03*
D15*
X99100000Y-96100000D03*
%TD*%
D16*
%TO.C,C1*%
X186870000Y-80270000D03*
D17*
X199870000Y-80270000D03*
%TD*%
M02*
