%FSLAX45Y45*%
G04 Gerber Fmt 4.5, Leading zero omitted, Abs format (unit mm)*
G04 Created by KiCad (PCBNEW 5.1.9+dfsg1-1) date 2021-09-18 19:11:49*
%MOMM*%
%LPD*%
G01*
G04 APERTURE LIST*
%TA.AperFunction,Profile*%
%ADD10C,0.050000*%
%TD*%
%ADD11C,0.200000*%
%ADD12C,0.300000*%
G04 APERTURE END LIST*
D10*
X22000000Y-6000000D02*
X22000000Y-10500000D01*
X8000000Y-10500000D02*
X22000000Y-10500000D01*
X8000000Y-6000000D02*
X22000000Y-6000000D01*
X8000000Y-6000000D02*
X8000000Y-10500000D01*
D11*
D12*
X8283928Y-10968214D02*
X8283928Y-10668214D01*
X8355357Y-10668214D01*
X8398214Y-10682500D01*
X8426786Y-10711072D01*
X8441071Y-10739643D01*
X8455357Y-10796786D01*
X8455357Y-10839643D01*
X8441071Y-10896786D01*
X8426786Y-10925357D01*
X8398214Y-10953929D01*
X8355357Y-10968214D01*
X8283928Y-10968214D01*
X8583928Y-10968214D02*
X8583928Y-10768214D01*
X8583928Y-10825357D02*
X8598214Y-10796786D01*
X8612500Y-10782500D01*
X8641071Y-10768214D01*
X8669643Y-10768214D01*
X8769643Y-10968214D02*
X8769643Y-10768214D01*
X8769643Y-10668214D02*
X8755357Y-10682500D01*
X8769643Y-10696786D01*
X8783928Y-10682500D01*
X8769643Y-10668214D01*
X8769643Y-10696786D01*
X8955357Y-10968214D02*
X8926786Y-10953929D01*
X8912500Y-10925357D01*
X8912500Y-10668214D01*
X9112500Y-10968214D02*
X9083928Y-10953929D01*
X9069643Y-10925357D01*
X9069643Y-10668214D01*
X9455357Y-10968214D02*
X9455357Y-10668214D01*
X9555357Y-10882500D01*
X9655357Y-10668214D01*
X9655357Y-10968214D01*
X9926786Y-10968214D02*
X9926786Y-10811072D01*
X9912500Y-10782500D01*
X9883928Y-10768214D01*
X9826786Y-10768214D01*
X9798214Y-10782500D01*
X9926786Y-10953929D02*
X9898214Y-10968214D01*
X9826786Y-10968214D01*
X9798214Y-10953929D01*
X9783928Y-10925357D01*
X9783928Y-10896786D01*
X9798214Y-10868214D01*
X9826786Y-10853929D01*
X9898214Y-10853929D01*
X9926786Y-10839643D01*
X10069643Y-10768214D02*
X10069643Y-11068214D01*
X10069643Y-10782500D02*
X10098214Y-10768214D01*
X10155357Y-10768214D01*
X10183928Y-10782500D01*
X10198214Y-10796786D01*
X10212500Y-10825357D01*
X10212500Y-10911072D01*
X10198214Y-10939643D01*
X10183928Y-10953929D01*
X10155357Y-10968214D01*
X10098214Y-10968214D01*
X10069643Y-10953929D01*
X10341071Y-10939643D02*
X10355357Y-10953929D01*
X10341071Y-10968214D01*
X10326786Y-10953929D01*
X10341071Y-10939643D01*
X10341071Y-10968214D01*
X10341071Y-10782500D02*
X10355357Y-10796786D01*
X10341071Y-10811072D01*
X10326786Y-10796786D01*
X10341071Y-10782500D01*
X10341071Y-10811072D01*
M02*
