%TF.GenerationSoftware,KiCad,Pcbnew,5.1.9+dfsg1-1*%
%TF.CreationDate,2021-09-18T19:11:01-05:00*%
%TF.ProjectId,larson_scanner,6c617273-6f6e-45f7-9363-616e6e65722e,rev?*%
%TF.SameCoordinates,Original*%
%TF.FileFunction,Copper,L1,Top*%
%TF.FilePolarity,Positive*%
%FSLAX46Y46*%
G04 Gerber Fmt 4.6, Leading zero omitted, Abs format (unit mm)*
G04 Created by KiCad (PCBNEW 5.1.9+dfsg1-1) date 2021-09-18 19:11:01*
%MOMM*%
%LPD*%
G01*
G04 APERTURE LIST*
%TA.AperFunction,ComponentPad*%
%ADD10C,3.000000*%
%TD*%
%TA.AperFunction,ComponentPad*%
%ADD11C,1.800000*%
%TD*%
%TA.AperFunction,ComponentPad*%
%ADD12R,1.800000X1.800000*%
%TD*%
%TA.AperFunction,ComponentPad*%
%ADD13C,1.400000*%
%TD*%
%TA.AperFunction,ComponentPad*%
%ADD14O,1.400000X1.400000*%
%TD*%
%TA.AperFunction,ComponentPad*%
%ADD15C,2.000000*%
%TD*%
%TA.AperFunction,ComponentPad*%
%ADD16O,1.600000X1.600000*%
%TD*%
%TA.AperFunction,ComponentPad*%
%ADD17R,1.600000X1.600000*%
%TD*%
%TA.AperFunction,Conductor*%
%ADD18C,0.250000*%
%TD*%
G04 APERTURE END LIST*
D10*
%TO.P,REF\u002A\u002A,2*%
%TO.N,GND*%
X93645560Y-87825420D03*
%TO.P,REF\u002A\u002A,1*%
%TO.N,VCC*%
X93620160Y-82514280D03*
%TD*%
D11*
%TO.P,D4,2*%
%TO.N,Net-(D4-Pad2)*%
X145710000Y-97890000D03*
D12*
%TO.P,D4,1*%
%TO.N,GND*%
X145710000Y-95350000D03*
%TD*%
D13*
%TO.P,R1,1*%
%TO.N,Net-(R1-Pad1)*%
X123430000Y-70400000D03*
D14*
%TO.P,R1,2*%
%TO.N,Net-(D1-Pad2)*%
X110430000Y-70400000D03*
%TD*%
D15*
%TO.P,SW1,2*%
%TO.N,GND*%
X212260000Y-85170000D03*
%TO.P,SW1,1*%
%TO.N,Net-(SW1-Pad1)*%
X212260000Y-79170000D03*
%TD*%
D16*
%TO.P,U1,20*%
%TO.N,VCC*%
X182110000Y-80460000D03*
%TO.P,U1,10*%
%TO.N,GND*%
X159250000Y-72840000D03*
%TO.P,U1,19*%
%TO.N,N/C*%
X179570000Y-80460000D03*
%TO.P,U1,9*%
%TO.N,Net-(R4-Pad1)*%
X161790000Y-72840000D03*
%TO.P,U1,18*%
%TO.N,N/C*%
X177030000Y-80460000D03*
%TO.P,U1,8*%
%TO.N,Net-(R3-Pad1)*%
X164330000Y-72840000D03*
%TO.P,U1,17*%
%TO.N,N/C*%
X174490000Y-80460000D03*
%TO.P,U1,7*%
%TO.N,Net-(R2-Pad1)*%
X166870000Y-72840000D03*
%TO.P,U1,16*%
%TO.N,Net-(SW1-Pad1)*%
X171950000Y-80460000D03*
%TO.P,U1,6*%
%TO.N,Net-(R1-Pad1)*%
X169410000Y-72840000D03*
%TO.P,U1,15*%
%TO.N,Net-(R9-Pad1)*%
X169410000Y-80460000D03*
%TO.P,U1,5*%
%TO.N,N/C*%
X171950000Y-72840000D03*
%TO.P,U1,14*%
%TO.N,Net-(R8-Pad1)*%
X166870000Y-80460000D03*
%TO.P,U1,4*%
%TO.N,N/C*%
X174490000Y-72840000D03*
%TO.P,U1,13*%
%TO.N,Net-(R7-Pad1)*%
X164330000Y-80460000D03*
%TO.P,U1,3*%
%TO.N,N/C*%
X177030000Y-72840000D03*
%TO.P,U1,12*%
%TO.N,Net-(R6-Pad1)*%
X161790000Y-80460000D03*
%TO.P,U1,2*%
%TO.N,N/C*%
X179570000Y-72840000D03*
%TO.P,U1,11*%
%TO.N,Net-(R5-Pad1)*%
X159250000Y-80460000D03*
D17*
%TO.P,U1,1*%
%TO.N,N/C*%
X182110000Y-72840000D03*
%TD*%
D13*
%TO.P,R9,1*%
%TO.N,Net-(R9-Pad1)*%
X142750000Y-88550000D03*
D14*
%TO.P,R9,2*%
%TO.N,Net-(D9-Pad2)*%
X129750000Y-88550000D03*
%TD*%
D13*
%TO.P,R8,1*%
%TO.N,Net-(R8-Pad1)*%
X142750000Y-84100000D03*
D14*
%TO.P,R8,2*%
%TO.N,Net-(D8-Pad2)*%
X129750000Y-84100000D03*
%TD*%
D13*
%TO.P,R7,1*%
%TO.N,Net-(R7-Pad1)*%
X142750000Y-79550000D03*
D14*
%TO.P,R7,2*%
%TO.N,Net-(D7-Pad2)*%
X129750000Y-79550000D03*
%TD*%
D13*
%TO.P,R6,1*%
%TO.N,Net-(R6-Pad1)*%
X142750000Y-75550000D03*
D14*
%TO.P,R6,2*%
%TO.N,Net-(D6-Pad2)*%
X129750000Y-75550000D03*
%TD*%
D13*
%TO.P,R5,1*%
%TO.N,Net-(R5-Pad1)*%
X123250000Y-88880000D03*
D14*
%TO.P,R5,2*%
%TO.N,Net-(D5-Pad2)*%
X110250000Y-88880000D03*
%TD*%
D13*
%TO.P,R4,1*%
%TO.N,Net-(R4-Pad1)*%
X123430000Y-84340000D03*
D14*
%TO.P,R4,2*%
%TO.N,Net-(D4-Pad2)*%
X110430000Y-84340000D03*
%TD*%
D13*
%TO.P,R3,1*%
%TO.N,Net-(R3-Pad1)*%
X123430000Y-79660000D03*
D14*
%TO.P,R3,2*%
%TO.N,Net-(D3-Pad2)*%
X110430000Y-79660000D03*
%TD*%
D13*
%TO.P,R2,1*%
%TO.N,Net-(R2-Pad1)*%
X123430000Y-75120000D03*
D14*
%TO.P,R2,2*%
%TO.N,Net-(D2-Pad2)*%
X110430000Y-75120000D03*
%TD*%
D11*
%TO.P,D9,2*%
%TO.N,Net-(D9-Pad2)*%
X204710000Y-97890000D03*
D12*
%TO.P,D9,1*%
%TO.N,GND*%
X204710000Y-95350000D03*
%TD*%
D11*
%TO.P,D8,2*%
%TO.N,Net-(D8-Pad2)*%
X192980000Y-98060000D03*
D12*
%TO.P,D8,1*%
%TO.N,GND*%
X192980000Y-95520000D03*
%TD*%
D11*
%TO.P,D7,2*%
%TO.N,Net-(D7-Pad2)*%
X181080000Y-97890000D03*
D12*
%TO.P,D7,1*%
%TO.N,GND*%
X181080000Y-95350000D03*
%TD*%
D11*
%TO.P,D6,2*%
%TO.N,Net-(D6-Pad2)*%
X169340000Y-97890000D03*
D12*
%TO.P,D6,1*%
%TO.N,GND*%
X169340000Y-95350000D03*
%TD*%
D11*
%TO.P,D5,2*%
%TO.N,Net-(D5-Pad2)*%
X157440000Y-97800000D03*
D12*
%TO.P,D5,1*%
%TO.N,GND*%
X157440000Y-95260000D03*
%TD*%
D11*
%TO.P,D3,2*%
%TO.N,Net-(D3-Pad2)*%
X133890000Y-98060000D03*
D12*
%TO.P,D3,1*%
%TO.N,GND*%
X133890000Y-95520000D03*
%TD*%
D11*
%TO.P,D2,2*%
%TO.N,Net-(D2-Pad2)*%
X122150000Y-97970000D03*
D12*
%TO.P,D2,1*%
%TO.N,GND*%
X122150000Y-95430000D03*
%TD*%
D11*
%TO.P,D1,2*%
%TO.N,Net-(D1-Pad2)*%
X99100000Y-98640000D03*
D12*
%TO.P,D1,1*%
%TO.N,GND*%
X99100000Y-96100000D03*
%TD*%
D13*
%TO.P,C1,1*%
%TO.N,VCC*%
X186870000Y-80270000D03*
D14*
%TO.P,C1,2*%
%TO.N,GND*%
X199870000Y-80270000D03*
%TD*%
D18*
%TO.N,VCC*%
X186680000Y-80460000D02*
X186870000Y-80270000D01*
X182110000Y-80460000D02*
X186680000Y-80460000D01*
X107484450Y-68649990D02*
X93620160Y-82514280D01*
X166884992Y-68649990D02*
X107484450Y-68649990D01*
X171120001Y-73965001D02*
X170535001Y-73380001D01*
X170535001Y-72299999D02*
X166884992Y-68649990D01*
X170535001Y-73380001D02*
X170535001Y-72299999D01*
X180565001Y-73965001D02*
X171120001Y-73965001D01*
X186870000Y-80270000D02*
X180565001Y-73965001D01*
%TO.N,GND*%
X93645560Y-87825420D02*
X92694580Y-87825420D01*
X90850000Y-90620980D02*
X93645560Y-87825420D01*
X214999990Y-101159990D02*
X90850000Y-101159990D01*
X214730000Y-100890000D02*
X214999990Y-101159990D01*
X199870000Y-80270000D02*
X214730000Y-95130000D01*
X170824999Y-81000001D02*
X173205008Y-83380010D01*
X170824999Y-79919999D02*
X170824999Y-81000001D01*
X170239999Y-79334999D02*
X170824999Y-79919999D01*
X173205008Y-83380010D02*
X196759990Y-83380010D01*
X165744999Y-79334999D02*
X170239999Y-79334999D01*
X196759990Y-83380010D02*
X199870000Y-80270000D01*
X159250000Y-72840000D02*
X165744999Y-79334999D01*
X212260000Y-92660000D02*
X214730000Y-95130000D01*
X212260000Y-85170000D02*
X212260000Y-92660000D01*
X192980000Y-95520000D02*
X197690000Y-100230000D01*
X214730000Y-100230000D02*
X214730000Y-100890000D01*
X181080000Y-95350000D02*
X185960000Y-100230000D01*
X200960000Y-100230000D02*
X214730000Y-100230000D01*
X197690000Y-100230000D02*
X200960000Y-100230000D01*
X186560000Y-100230000D02*
X200960000Y-100230000D01*
X169340000Y-95350000D02*
X174220000Y-100230000D01*
X185960000Y-100230000D02*
X186560000Y-100230000D01*
X157440000Y-95260000D02*
X162410000Y-100230000D01*
X174450000Y-100230000D02*
X186560000Y-100230000D01*
X174220000Y-100230000D02*
X174450000Y-100230000D01*
X145710000Y-95350000D02*
X150590000Y-100230000D01*
X162840000Y-100230000D02*
X174450000Y-100230000D01*
X162410000Y-100230000D02*
X162840000Y-100230000D01*
X133890000Y-95520000D02*
X138600000Y-100230000D01*
X151910000Y-100230000D02*
X162840000Y-100230000D01*
X150590000Y-100230000D02*
X151910000Y-100230000D01*
X129410000Y-95430000D02*
X134210000Y-100230000D01*
X134210000Y-100230000D02*
X141430000Y-100230000D01*
X122150000Y-95430000D02*
X129410000Y-95430000D01*
X141430000Y-100230000D02*
X151910000Y-100230000D01*
X138600000Y-100230000D02*
X141430000Y-100230000D01*
X90850000Y-95780000D02*
X90850000Y-90620980D01*
X91170000Y-96100000D02*
X90850000Y-95780000D01*
X99100000Y-96100000D02*
X91170000Y-96100000D01*
X90850000Y-101159990D02*
X90850000Y-95780000D01*
X213700000Y-95350000D02*
X214730000Y-96380000D01*
X204710000Y-95350000D02*
X213700000Y-95350000D01*
X214730000Y-96380000D02*
X214730000Y-100230000D01*
X214730000Y-95130000D02*
X214730000Y-96380000D01*
%TO.N,Net-(D1-Pad2)*%
X110430000Y-70400000D02*
X104960000Y-75870000D01*
X104960000Y-92780000D02*
X99100000Y-98640000D01*
X104960000Y-75870000D02*
X104960000Y-92780000D01*
%TO.N,Net-(D2-Pad2)*%
X110430000Y-75120000D02*
X105800000Y-79750000D01*
X105800000Y-79750000D02*
X105800000Y-97450000D01*
X106320000Y-97970000D02*
X122150000Y-97970000D01*
X105800000Y-97450000D02*
X106320000Y-97970000D01*
%TO.N,Net-(D3-Pad2)*%
X110430000Y-79660000D02*
X106280000Y-83810000D01*
X106280000Y-83810000D02*
X106280000Y-91580000D01*
X106280000Y-91580000D02*
X107780000Y-93080000D01*
X128910000Y-93080000D02*
X133890000Y-98060000D01*
X107780000Y-93080000D02*
X128910000Y-93080000D01*
%TO.N,Net-(D4-Pad2)*%
X110430000Y-84340000D02*
X107120000Y-87650000D01*
X107120000Y-87650000D02*
X107120000Y-90980000D01*
X107120000Y-90980000D02*
X108769990Y-92629990D01*
X145710000Y-97735002D02*
X145710000Y-97890000D01*
X140604988Y-92629990D02*
X145710000Y-97735002D01*
X108769990Y-92629990D02*
X140604988Y-92629990D01*
%TO.N,Net-(D5-Pad2)*%
X110250000Y-88880000D02*
X110250000Y-91660000D01*
X151819980Y-92179980D02*
X157440000Y-97800000D01*
X110769980Y-92179980D02*
X151819980Y-92179980D01*
X110250000Y-91660000D02*
X110769980Y-92179980D01*
%TO.N,Net-(D6-Pad2)*%
X122937999Y-74094999D02*
X119790000Y-77242998D01*
X128294999Y-74094999D02*
X122937999Y-74094999D01*
X129750000Y-75550000D02*
X128294999Y-74094999D01*
X119790000Y-90760000D02*
X120759970Y-91729970D01*
X119790000Y-77242998D02*
X119790000Y-90760000D01*
X120759970Y-91729970D02*
X158509970Y-91729970D01*
X164670000Y-97890000D02*
X169340000Y-97890000D01*
X158509970Y-91729970D02*
X164670000Y-97890000D01*
%TO.N,Net-(D7-Pad2)*%
X129750000Y-79550000D02*
X127530000Y-77330000D01*
X127530000Y-77330000D02*
X120339408Y-77330000D01*
X120640000Y-77630592D02*
X120640000Y-90973590D01*
X120339408Y-77330000D02*
X120640000Y-77630592D01*
X174163590Y-90973590D02*
X181080000Y-97890000D01*
X169086410Y-90973590D02*
X174163590Y-90973590D01*
X120640000Y-90973590D02*
X169086410Y-90973590D01*
X169086410Y-90973590D02*
X169583590Y-90973590D01*
%TO.N,Net-(D8-Pad2)*%
X129750000Y-84100000D02*
X126820000Y-81170000D01*
X126820000Y-81170000D02*
X121380000Y-81170000D01*
X121380000Y-81170000D02*
X121380000Y-90490000D01*
X185410000Y-90490000D02*
X192980000Y-98060000D01*
X121380000Y-90490000D02*
X185410000Y-90490000D01*
%TO.N,Net-(D9-Pad2)*%
X196859990Y-90039990D02*
X204710000Y-97890000D01*
X122419990Y-90039990D02*
X196859990Y-90039990D01*
X122224999Y-89844999D02*
X122419990Y-90039990D01*
X122224999Y-88387999D02*
X122224999Y-89844999D01*
X122762997Y-87850001D02*
X122224999Y-88387999D01*
X129050001Y-87850001D02*
X122762997Y-87850001D01*
X129750000Y-88550000D02*
X129050001Y-87850001D01*
%TO.N,Net-(R1-Pad1)*%
X123430000Y-70400000D02*
X123430000Y-69560000D01*
X123430000Y-69560000D02*
X123890000Y-69100000D01*
X165670000Y-69100000D02*
X169410000Y-72840000D01*
X123890000Y-69100000D02*
X165670000Y-69100000D01*
%TO.N,Net-(R2-Pad1)*%
X123430000Y-75120000D02*
X127050000Y-75120000D01*
X132354999Y-76575001D02*
X139379990Y-69550010D01*
X128505001Y-76575001D02*
X132354999Y-76575001D01*
X127050000Y-75120000D02*
X128505001Y-76575001D01*
X163580010Y-69550010D02*
X166870000Y-72840000D01*
X139379990Y-69550010D02*
X163580010Y-69550010D01*
%TO.N,Net-(R3-Pad1)*%
X124345001Y-80575001D02*
X135874999Y-80575001D01*
X123430000Y-79660000D02*
X124345001Y-80575001D01*
X135874999Y-80575001D02*
X138780000Y-77670000D01*
X138780000Y-74990000D02*
X143769980Y-70000020D01*
X138780000Y-77670000D02*
X138780000Y-74990000D01*
X161490020Y-70000020D02*
X164330000Y-72840000D01*
X143769980Y-70000020D02*
X161490020Y-70000020D01*
%TO.N,Net-(R4-Pad1)*%
X144979970Y-70450030D02*
X159400030Y-70450030D01*
X159400030Y-70450030D02*
X161790000Y-72840000D01*
X140170000Y-75260000D02*
X144979970Y-70450030D01*
X140170000Y-79647002D02*
X140170000Y-75260000D01*
X134692001Y-85125001D02*
X140170000Y-79647002D01*
X124215001Y-85125001D02*
X134692001Y-85125001D01*
X123430000Y-84340000D02*
X124215001Y-85125001D01*
%TO.N,Net-(R5-Pad1)*%
X156990000Y-78200000D02*
X159250000Y-80460000D01*
X142253412Y-78200000D02*
X156990000Y-78200000D01*
X130873413Y-89579999D02*
X142253412Y-78200000D01*
X123949999Y-89579999D02*
X130873413Y-89579999D01*
X123250000Y-88880000D02*
X123949999Y-89579999D01*
%TO.N,Net-(R6-Pad1)*%
X160915002Y-80460000D02*
X161790000Y-80460000D01*
X156005002Y-75550000D02*
X160915002Y-80460000D01*
X142750000Y-75550000D02*
X156005002Y-75550000D01*
%TO.N,Net-(R7-Pad1)*%
X163204999Y-81585001D02*
X164330000Y-80460000D01*
X144785001Y-81585001D02*
X163204999Y-81585001D01*
X142750000Y-79550000D02*
X144785001Y-81585001D01*
%TO.N,Net-(R8-Pad1)*%
X165995002Y-80460000D02*
X166870000Y-80460000D01*
X162355002Y-84100000D02*
X165995002Y-80460000D01*
X142750000Y-84100000D02*
X162355002Y-84100000D01*
%TO.N,Net-(R9-Pad1)*%
X161320000Y-88550000D02*
X169410000Y-80460000D01*
X142750000Y-88550000D02*
X161320000Y-88550000D01*
%TO.N,Net-(SW1-Pad1)*%
X191245001Y-79244999D02*
X187560000Y-82930000D01*
X174420000Y-82930000D02*
X171950000Y-80460000D01*
X187560000Y-82930000D02*
X174420000Y-82930000D01*
X199980000Y-79170000D02*
X199905001Y-79244999D01*
X212260000Y-79170000D02*
X199980000Y-79170000D01*
X199905001Y-79244999D02*
X191245001Y-79244999D01*
X200362001Y-79244999D02*
X199905001Y-79244999D01*
%TD*%
M02*
